<svg width="85" height="85" fill="none" xmlns="http://www.w3.org/2000/svg"><path d="M42.5 7.083C22.97 7.083 7.083 22.971 7.083 42.5c0 19.529 15.888 35.417 35.417 35.417 19.528 0 35.416-15.888 35.416-35.417 0-19.529-15.888-35.417-35.416-35.417zM14.166 42.5c0-3.184.553-6.24 1.527-9.099l5.557 5.557 7.083 7.084v7.083l7.083 7.083 3.542 3.542v6.839C25.008 68.836 14.166 56.922 14.166 42.5zm50.752 17.258c-2.312-1.862-5.819-3.091-8.252-3.091v-3.542a7.083 7.083 0 00-7.083-7.083H35.416V35.417a7.083 7.083 0 007.084-7.084v-3.541h3.541a7.083 7.083 0 007.084-7.084v-1.455c10.37 4.21 17.708 14.382 17.708 26.247a28.14 28.14 0 01-5.915 17.258z" fill="#fff"/></svg>