<svg width="30" height="30" fill="none" xmlns="http://www.w3.org/2000/svg"><path d="M15 7.309A7.68 7.68 0 007.309 15a7.68 7.68 0 007.69 7.691A7.68 7.68 0 0022.692 15 7.68 7.68 0 0015 7.309zm0 12.69A5.01 5.01 0 0110 15a5.01 5.01 0 015-4.999A5.01 5.01 0 0119.998 15 5.01 5.01 0 0115 19.999zM23.006 5.2c-.994 0-1.796.803-1.796 1.796 0 .994.802 1.797 1.796 1.797s1.796-.799 1.796-1.797A1.795 1.795 0 0023.006 5.2zm6.986 9.8c0-2.07.019-4.121-.097-6.188-.116-2.4-.664-4.53-2.419-6.284C25.717.767 23.591.224 21.191.107 19.121-.009 17.07.01 15.004.01c-2.07 0-4.122-.019-6.188.098-2.4.116-4.53.663-6.285 2.418C.772 4.287.229 6.412.112 8.813-.004 10.883.015 12.934.015 15s-.019 4.121.097 6.188c.117 2.4.664 4.53 2.419 6.285 1.759 1.758 3.885 2.302 6.285 2.418 2.07.117 4.121.098 6.188.098 2.07 0 4.12.018 6.187-.098 2.4-.116 4.53-.663 6.285-2.418 1.759-1.76 2.303-3.886 2.419-6.285.12-2.067.097-4.118.097-6.188zm-3.3 8.843a4.767 4.767 0 01-1.132 1.717 4.8 4.8 0 01-1.718 1.133c-1.972.783-6.656.607-8.842.607-2.187 0-6.874.176-8.846-.604a4.764 4.764 0 01-1.718-1.132 4.797 4.797 0 01-1.132-1.718C2.524 21.87 2.7 17.186 2.7 15s-.176-6.874.604-8.846a4.765 4.765 0 011.132-1.718 4.847 4.847 0 011.718-1.132C8.126 2.524 12.814 2.7 15 2.7s6.873-.176 8.846.604a4.765 4.765 0 011.718 1.132 4.796 4.796 0 011.132 1.718c.78 1.972.604 6.66.604 8.846s.176 6.87-.608 8.843z" fill="#BDBDBD"/></svg>