<svg width="30" height="30" fill="none" xmlns="http://www.w3.org/2000/svg"><path d="M27.564.03H2.436A2.407 2.407 0 00.029 2.435v25.128a2.407 2.407 0 002.407 2.407h25.128a2.407 2.407 0 002.406-2.407V2.436A2.407 2.407 0 0027.564.029zm0 27.545c-16.76-.003-25.14-.007-25.14-.01.004-16.76.008-25.14.012-25.14 16.76.004 25.14.007 25.14.011-.005 16.76-.008 25.14-.012 25.14zM4.468 11.254h4.443v14.289H4.468v-14.29zM6.691 9.3a2.577 2.577 0 001.821-4.396A2.575 2.575 0 106.692 9.3zm9.443 9.173c0-1.864.355-3.668 2.665-3.668 2.275 0 2.309 2.13 2.309 3.788v6.95h4.439v-7.837c0-3.848-.831-6.808-5.326-6.808-2.16 0-3.608 1.187-4.203 2.31h-.06v-1.954h-4.263v14.289h4.439v-7.07z" fill="#BDBDBD"/></svg>