<svg width="37" height="30" fill="none" xmlns="http://www.w3.org/2000/svg"><path d="M36.968 3.564a15.176 15.176 0 01-4.359 1.171A7.549 7.549 0 0035.938.564a14.94 14.94 0 01-4.802 1.828A7.55 7.55 0 0025.606 0a7.566 7.566 0 00-7.566 7.571c0 .586.071 1.172.186 1.735A21.505 21.505 0 012.623 1.385a7.514 7.514 0 00-1.03 3.82 7.572 7.572 0 003.373 6.307 7.632 7.632 0 01-3.422-.963v.093a7.57 7.57 0 006.067 7.429 7.97 7.97 0 01-1.993.257c-.492 0-.958-.048-1.429-.115.959 3 3.75 5.179 7.074 5.25a15.167 15.167 0 01-9.395 3.235c-.634 0-1.22-.022-1.828-.093A21.428 21.428 0 0011.663 30C25.58 30 33.195 18.47 33.195 8.463c0-.328 0-.657-.022-.985a16.299 16.299 0 003.794-3.914z" fill="#BDBDBD"/></svg>