<svg width="33" height="25" fill="none" xmlns="http://www.w3.org/2000/svg"><path d="M32.405 7.44L16.936.223a1.032 1.032 0 00-.872 0L.595 7.441A1.03 1.03 0 000 8.375v10.313h2.062V9.995l2.063.962v9.793c0 .466.311.872.76.995L16.23 24.84a1.025 1.025 0 00.542 0l11.344-3.094c.449-.122.76-.53.76-.995v-9.793l3.53-1.647a1.03 1.03 0 000-1.87zm-5.593 12.523L16.5 22.775 6.187 19.963V11.92l9.877 4.609a1.031 1.031 0 00.872 0l9.876-4.61v8.044zM16.5 14.456L3.47 8.376 16.5 2.294l13.03 6.08-13.03 6.081z" fill="#969CBA"/></svg>