<svg width="27" height="45" fill="none" xmlns="http://www.w3.org/2000/svg"><path d="M20.202 24.004c.285-.594 1.073-1.145 1.753-1.218.68-.074 1.3-.668 1.377-1.318.081-.645.655-1.4 1.275-1.675.312-.151.566-.393.726-.691.16-.298.217-.637.163-.967-.14-.64.164-1.528.666-1.968.248-.237.412-.543.467-.875a1.526 1.526 0 00-.161-.97 2.256 2.256 0 010-2.066c.16-.299.217-.639.162-.97a1.561 1.561 0 00-.468-.875c-.502-.445-.803-1.33-.666-1.967a1.53 1.53 0 00-.162-.97 1.631 1.631 0 00-.727-.694 2.454 2.454 0 01-.84-.697 2.32 2.32 0 01-.436-.977 1.563 1.563 0 00-.464-.872 1.69 1.69 0 00-.912-.446 2.53 2.53 0 01-1.023-.415 2.394 2.394 0 01-.73-.801 1.619 1.619 0 00-.726-.693 1.721 1.721 0 00-1.014-.15c-.372.05-.75.018-1.107-.093a2.493 2.493 0 01-.952-.548C15.938.605 15.07.476 14.475.796c-.596.32-1.572.32-2.165 0a1.716 1.716 0 00-1.015-.16 1.677 1.677 0 00-.916.448c-.27.25-.595.437-.952.548a2.573 2.573 0 01-1.107.092c-.346-.053-.7 0-1.012.152a1.616 1.616 0 00-.724.693c-.287.59-1.075 1.14-1.755 1.214a1.7 1.7 0 00-.913.447c-.248.237-.41.543-.466.873a2.303 2.303 0 01-.435.978c-.22.29-.508.527-.84.695a1.628 1.628 0 00-.723.695 1.527 1.527 0 00-.16.968c.133.638-.168 1.525-.67 1.967-.5.442-.64 1.272-.306 1.845.336.567.336 1.5 0 2.067-.16.299-.216.64-.161.971.055.332.219.639.468.876.503.438.802 1.325.67 1.967-.055.33 0 .669.159.967.158.298.412.54.723.692.622.274 1.193 1.03 1.273 1.675.082.65.7 1.244 1.379 1.317.68.074 1.468.627 1.755 1.219.16.297.413.539.725.69a1.72 1.72 0 001.01.153c.67-.127 1.599.159 2.06.64a1.721 1.721 0 001.93.293c.593-.32 1.57-.32 2.165 0 .596.32 1.463.187 1.929-.293.465-.483 1.388-.767 2.058-.64.347.053.702 0 1.015-.15a1.63 1.63 0 00.728-.69zm-6.81-2.889c-2.174 0-4.258-.825-5.796-2.293-1.537-1.47-2.4-3.461-2.4-5.539 0-2.077.863-4.069 2.4-5.538 1.538-1.469 3.622-2.294 5.796-2.294 2.174 0 4.259.825 5.796 2.294s2.4 3.461 2.4 5.538c0 2.078-.863 4.07-2.4 5.539-1.537 1.468-3.622 2.294-5.796 2.294zm-9.703 4.63L.693 41.985l7.54-1.07 6.704 3.47 2.985-16.174c-2.41.674-4.95.802-7.421.374a16.555 16.555 0 01-6.812-2.838zm19.252.111a16.42 16.42 0 01-2.387 1.375l-1.803 9.758 8.122-4.21-3.932-6.923z" fill="#8EC2F2"/></svg>