<svg width="33" height="25" viewBox="0 0 33 25" fill="none" xmlns="http://www.w3.org/2000/svg">
<path d="M32.4048 7.44088L16.9361 0.222166C16.6601 0.0932622 16.3399 0.0932622 16.064 0.222166L0.595185 7.44088C0.231603 7.61011 0 7.97465 0 8.37549V18.688H2.06247V9.99473L4.12494 10.9572V20.7504C4.12494 21.2157 4.43611 21.6225 4.88526 21.7454L16.2291 24.8392C16.3177 24.8634 16.4083 24.8754 16.5 24.8754C16.5916 24.8754 16.6822 24.8634 16.7709 24.8392L28.1147 21.7454C28.5638 21.6226 28.875 21.2157 28.875 20.7504V10.9572L32.4048 9.31002C32.7684 9.14086 33 8.77625 33 8.37549C33 7.97465 32.7684 7.61011 32.4048 7.44088V7.44088ZM26.8125 19.963L16.5 22.7747L6.18748 19.963V11.9198L16.0639 16.5288C16.2019 16.5932 16.3509 16.6255 16.5 16.6255C16.649 16.6255 16.798 16.5933 16.936 16.5288L26.8124 11.9198C26.8125 11.9197 26.8125 19.963 26.8125 19.963ZM16.5 14.4562L3.46936 8.37549L16.5 2.29474L29.5306 8.37549L16.5 14.4562Z" fill="#969CBA"/>
</svg>
